<svg width="66" height="66" xmlns="http://www.w3.org/2000/svg"><g fill="#F5F5F5" fill-rule="evenodd"><path d="M51.294 18.591V5.841c0-2.012-1.64-3.643-3.664-3.643H3.664C1.64 2.198 0 3.83 0 5.841v56.465c0 2.012 1.64 3.643 3.664 3.643H47.63c2.023 0 3.664-1.631 3.664-3.643v-12.75H40.302v3.643c0 1.006-.82 1.821-1.832 1.821H12.823a1.827 1.827 0 0 1-1.832-1.821v-38.25c0-1.006.82-1.822 1.832-1.822H38.47c1.012 0 1.832.816 1.832 1.821v3.643h10.992z"/><path d="M35.722 16.77h-20.15a.913.913 0 0 0-.917.91v19.126c0 .503.41.91.916.91h12.366c.253 0 .458.204.458.456v5.464a.457.457 0 0 1-.458.455h-4.58a.457.457 0 0 1-.458-.455V41.36h-8.244v9.108c0 .503.41.91.916.91h20.151a.913.913 0 0 0 .916-.91V31.34c0-.503-.41-.91-.916-.91H23.357a.457.457 0 0 1-.458-.456v-5.464c0-.251.205-.455.458-.455h4.58c.253 0 .458.204.458.455v2.277h8.243V17.68c0-.503-.41-.91-.916-.91zM51.294 38.627v7.286H40.302V22.234h10.992v7.286h3.663V2.198H65.95v63.75H54.957v-27.32h-3.663z"/></g></svg>